<svg width="236" height="25" viewBox="0 0 236 25" fill="none" xmlns="http://www.w3.org/2000/svg">
<path fill-rule="evenodd" clip-rule="evenodd" d="M74.8099 22.8595C74.8099 23.3664 74.5543 23.6198 74.0432 23.6198H65.0393C64.8218 23.6198 64.6451 23.5565 64.5092 23.4298C64.3733 23.303 64.3053 23.124 64.3053 22.8926C64.3053 22.6942 64.3515 22.5344 64.4439 22.4132C64.5364 22.292 64.6805 22.1928 64.8762 22.1157L65.5776 21.9008C65.7516 21.8457 65.8875 21.741 65.9854 21.5868C66.0832 21.4325 66.1322 21.2121 66.1322 20.9256V11.3719C66.1322 11.2176 66.0941 11.0882 66.018 10.9835C65.9419 10.8788 65.8005 10.7824 65.5939 10.6942L64.6478 10.3802C64.3977 10.259 64.2183 10.1295 64.1096 9.99174C64.0008 9.85399 63.9464 9.68595 63.9464 9.4876C63.9464 9.28926 64.0144 9.12672 64.1503 9L64.2037 8.95545C64.334 8.85843 64.5038 8.80992 64.7131 8.80992H66.1444L66.1332 8.71333C66.1026 8.52014 66.0262 8.33471 65.9038 8.15702C65.7407 7.92011 65.5558 7.65289 65.3492 7.35537C65.1426 7.05785 64.9578 6.70248 64.7946 6.28926C64.6315 5.87603 64.55 5.36639 64.55 4.76033C64.55 3.3168 65.0393 2.16253 66.018 1.29752C66.9967 0.432507 68.3886 0 70.1937 0C71.3573 0 72.3224 0.187328 73.089 0.561983C73.8556 0.936639 74.4293 1.43526 74.8099 2.05785C75.1905 2.68044 75.3808 3.36088 75.3808 4.09917C75.3808 4.9697 75.1551 5.62259 74.7038 6.05785C74.2525 6.49311 73.6735 6.71074 72.9667 6.71074C72.1837 6.71074 71.553 6.4573 71.0745 5.95041C70.5961 5.44353 70.3568 4.77135 70.3568 3.93388V2.46281C70.3568 2.07713 70.2807 1.79339 70.1285 1.61157C69.9762 1.42975 69.7424 1.33884 69.4271 1.33884C69.0247 1.33884 68.7203 1.47658 68.5136 1.75207C68.307 2.02755 68.2037 2.42424 68.2037 2.94215C68.2037 3.47107 68.3261 3.96694 68.5707 4.42975C68.8154 4.89256 69.1172 5.32507 69.476 5.72727C69.8349 6.12948 70.1937 6.51515 70.5526 6.8843C70.9114 7.25344 71.2132 7.61708 71.4579 7.97521L71.5276 8.08256C71.6597 8.29711 71.7478 8.51066 71.7918 8.72322L71.8067 8.80992H74.2226C74.4728 8.80992 74.6658 8.86226 74.8017 8.96694C74.9376 9.07162 75.0056 9.23416 75.0056 9.45455C75.0056 9.78512 74.8642 10.0551 74.5815 10.2645C74.2988 10.4738 73.8529 10.5785 73.244 10.5785H72.0858V20.876C72.0858 21.1846 72.1321 21.4215 72.2245 21.5868C72.3169 21.7521 72.4664 21.8512 72.6731 21.8843L74.0758 22.0992C74.3259 22.1322 74.5108 22.2121 74.6304 22.3388C74.75 22.4656 74.8099 22.6391 74.8099 22.8595ZM42.6927 23.2398C41.714 23.7137 40.5722 23.9506 39.2673 23.9506C37.8863 23.9506 36.6493 23.6586 35.5564 23.0745C34.4636 22.4905 33.6018 21.6448 32.9711 20.5373C32.3404 19.4299 32.025 18.0828 32.025 16.496C32.025 14.9643 32.354 13.5952 33.0119 12.3886C33.6698 11.182 34.5859 10.2288 35.7603 9.52908C36.9348 8.82935 38.3049 8.47949 39.8708 8.47949C41.2084 8.47949 42.3366 8.67784 43.2554 9.07453C44.1743 9.47123 44.8757 10.0084 45.3596 10.6861C45.8435 11.3638 46.0855 12.1214 46.0855 12.9588C46.0855 13.8404 45.8326 14.5318 45.327 15.0332C44.8213 15.5346 44.1335 15.7853 43.2636 15.7853C42.3719 15.7853 41.695 15.5291 41.2328 15.0167C40.7707 14.5043 40.5396 13.8018 40.5396 12.9092V11.8514C40.5396 11.3114 40.4417 10.9037 40.246 10.6283C40.0502 10.3528 39.7729 10.215 39.4141 10.215C39.0552 10.215 38.7317 10.361 38.4436 10.653C38.1554 10.9451 37.9325 11.3831 37.7748 11.9671C37.6171 12.5511 37.5383 13.2729 37.5383 14.1324C37.5383 15.3665 37.7204 16.4024 38.0847 17.2398C38.449 18.0773 38.9465 18.7054 39.5772 19.1241C40.2079 19.5429 40.9256 19.7522 41.7303 19.7522C42.535 19.7522 43.2092 19.6338 43.7529 19.3968C44.2966 19.1599 44.7153 18.7605 45.0089 18.1985C45.172 18.0442 45.2998 17.9451 45.3922 17.901C45.4847 17.8569 45.5744 17.8349 45.6614 17.8349C45.7701 17.8459 45.8598 17.8982 45.9305 17.9919C46.0012 18.0856 46.0311 18.2316 46.0202 18.4299C45.9332 19.5098 45.6016 20.463 45.0252 21.2894C44.4489 22.1159 43.6714 22.766 42.6927 23.2398ZM59.2733 22.9092C58.0499 23.5814 56.6281 23.9175 55.0078 23.9175C53.4311 23.9175 52.0473 23.5897 50.8566 22.934C49.6658 22.2784 48.7388 21.3721 48.0755 20.215C47.4122 19.058 47.0805 17.7192 47.0805 16.1985C47.0805 14.744 47.4285 13.4354 48.1244 12.2729C48.8204 11.1103 49.7827 10.1875 51.0115 9.50429C52.2403 8.82109 53.654 8.47949 55.2525 8.47949C56.8402 8.47949 58.2266 8.81007 59.4119 9.47123C60.5972 10.1324 61.5215 11.047 62.1849 12.215C62.8482 13.3831 63.1799 14.7329 63.1799 16.2646C63.1799 17.7192 62.8346 19.0222 62.1441 20.1737C61.4536 21.3252 60.4966 22.2371 59.2733 22.9092ZM56.2475 22.1984C55.9104 22.2646 55.5814 22.1158 55.2606 21.7522C54.9399 21.3885 54.6354 20.7769 54.3472 19.9174C54.059 19.0579 53.7845 17.9285 53.5235 16.529C53.2734 15.1296 53.132 13.9781 53.0994 13.0745C53.0668 12.1709 53.132 11.4877 53.2951 11.0249C53.4582 10.5621 53.7083 10.2921 54.0454 10.215C54.3825 10.1488 54.7115 10.2976 55.0323 10.6612C55.3531 11.0249 55.6603 11.6365 55.9539 12.496C56.2475 13.3555 56.5248 14.4849 56.7858 15.8844C57.0467 17.2838 57.1908 18.4381 57.218 19.3472C57.2452 20.2563 57.1745 20.9422 57.006 21.405C56.8374 21.8679 56.5846 22.1323 56.2475 22.1984ZM85.4286 23.6198C85.9397 23.6198 86.1953 23.3664 86.1953 22.8595C86.1953 22.6391 86.1355 22.4656 86.0158 22.3388C85.8962 22.2121 85.7114 22.1322 85.4613 22.0992L84.0585 21.8843C83.8519 21.8512 83.7023 21.7521 83.6099 21.5868C83.5175 21.4215 83.4713 21.1846 83.4713 20.876V10.5785H84.6294C85.2383 10.5785 85.6842 10.4738 85.9669 10.2645C86.2496 10.0551 86.391 9.78512 86.391 9.45455C86.391 9.23416 86.323 9.07162 86.1871 8.96694C86.0512 8.86226 85.8582 8.80992 85.6081 8.80992H83.1922L83.1773 8.72322C83.1332 8.51066 83.0451 8.29711 82.913 8.08256L82.8433 7.97521C82.5986 7.61708 82.2968 7.25344 81.938 6.8843C81.5791 6.51515 81.2203 6.12948 80.8614 5.72727C80.5026 5.32507 80.2008 4.89256 79.9562 4.42975C79.7115 3.96694 79.5891 3.47107 79.5891 2.94215C79.5891 2.42424 79.6925 2.02755 79.8991 1.75207C80.1057 1.47658 80.4102 1.33884 80.8125 1.33884C81.1279 1.33884 81.3617 1.42975 81.5139 1.61157C81.6661 1.79339 81.7423 2.07713 81.7423 2.46281V3.93388C81.7423 4.77135 81.9815 5.44353 82.46 5.95041C82.9384 6.4573 83.5691 6.71074 84.3521 6.71074C85.0589 6.71074 85.638 6.49311 86.0892 6.05785C86.5405 5.62259 86.7662 4.9697 86.7662 4.09917C86.7662 3.36088 86.5759 2.68044 86.1953 2.05785C85.8147 1.43526 85.2411 0.936639 84.4744 0.561983C83.7078 0.187328 82.7427 0 81.5791 0C79.774 0 78.3821 0.432507 77.4034 1.29752C76.4247 2.16253 75.9354 3.3168 75.9354 4.76033C75.9354 5.36639 76.0169 5.87603 76.1801 6.28926C76.3432 6.70248 76.528 7.05785 76.7346 7.35537C76.9413 7.65289 77.1261 7.92011 77.2892 8.15702C77.4116 8.33471 77.488 8.52014 77.5186 8.71333L77.5298 8.80992H76.0985C75.8892 8.80992 75.7194 8.85843 75.5892 8.95545L75.5358 9C75.3998 9.12672 75.3319 9.28926 75.3319 9.4876C75.3319 9.68595 75.3862 9.85399 75.495 9.99174C75.6037 10.1295 75.7831 10.259 76.0333 10.3802L76.9793 10.6942C77.1859 10.7824 77.3273 10.8788 77.4034 10.9835C77.4795 11.0882 77.5176 11.2176 77.5176 11.3719V20.9256C77.5176 21.2121 77.4687 21.4325 77.3708 21.5868C77.2729 21.741 77.137 21.8457 76.963 21.9008L76.2616 22.1157C76.0659 22.1928 75.9218 22.292 75.8294 22.4132C75.7369 22.5344 75.6907 22.6942 75.6907 22.8926C75.6907 23.124 75.7587 23.303 75.8946 23.4298C76.0305 23.5565 76.2072 23.6198 76.4247 23.6198H85.4286ZM98.2004 23.1406C97.1456 23.6806 95.9277 23.9506 94.5467 23.9506C93.0243 23.9506 91.6868 23.6338 90.5341 23.0002C89.3814 22.3665 88.4816 21.4795 87.8345 20.339C87.1875 19.1985 86.864 17.8789 86.864 16.3803C86.864 14.8046 87.1766 13.4244 87.8019 12.2398C88.4272 11.0553 89.3325 10.1324 90.5178 9.47123C91.7031 8.81007 93.1276 8.47949 94.7914 8.47949C96.205 8.47949 97.4229 8.75773 98.4451 9.3142C99.4673 9.87068 100.253 10.6255 100.802 11.5787C101.351 12.5318 101.626 13.5924 101.626 14.7605C101.626 15.2674 101.49 15.6668 101.218 15.9588L101.153 16.0236C100.885 16.2724 100.515 16.3968 100.044 16.3968H92.5871L92.6031 16.4731C92.8009 17.3806 93.1388 18.1072 93.6169 18.653C94.4325 19.5842 95.5199 20.0497 96.8792 20.0497C97.7492 20.0497 98.5185 19.8514 99.1873 19.4547C99.8561 19.058 100.305 18.507 100.533 17.8018C100.663 17.6586 100.78 17.5621 100.884 17.5126C100.987 17.463 101.077 17.4382 101.153 17.4382C101.262 17.4382 101.354 17.4822 101.43 17.5704C101.506 17.6586 101.544 17.8073 101.544 18.0167C101.544 19.0966 101.251 20.0856 100.663 20.9836C100.076 21.8817 99.2552 22.6007 98.2004 23.1406ZM92.4169 15.0716C92.4014 14.818 92.3936 14.5545 92.3936 14.2809C92.3936 13.2451 92.4697 12.4296 92.622 11.8346C92.7742 11.2396 92.9699 10.8181 93.2092 10.5701C93.4484 10.3222 93.7148 10.1982 94.0084 10.1982C94.389 10.1982 94.7452 10.5233 95.0768 11.1734C95.4085 11.8236 95.5743 12.9035 95.5743 14.4131C95.5743 14.8759 95.3677 15.1073 94.9545 15.1073H92.419L92.4169 15.0716ZM113.794 23.1406C112.739 23.6806 111.521 23.9506 110.14 23.9506C108.618 23.9506 107.28 23.6338 106.128 23.0002C104.975 22.3665 104.075 21.4795 103.428 20.339C102.781 19.1985 102.458 17.8789 102.458 16.3803C102.458 14.8046 102.77 13.4244 103.396 12.2398C104.021 11.0553 104.926 10.1324 106.111 9.47123C107.297 8.81007 108.721 8.47949 110.385 8.47949C111.799 8.47949 113.017 8.75773 114.039 9.3142C115.061 9.87068 115.847 10.6255 116.396 11.5787C116.945 12.5318 117.22 13.5924 117.22 14.7605C117.22 15.2674 117.084 15.6668 116.812 15.9588L116.747 16.0236C116.479 16.2724 116.109 16.3968 115.637 16.3968H108.181L108.197 16.4731C108.395 17.3806 108.733 18.1072 109.211 18.653C110.026 19.5842 111.114 20.0497 112.473 20.0497C113.343 20.0497 114.112 19.8514 114.781 19.4547C115.45 19.058 115.898 18.507 116.127 17.8018C116.257 17.6586 116.374 17.5621 116.477 17.5126C116.581 17.463 116.67 17.4382 116.747 17.4382C116.855 17.4382 116.948 17.4822 117.024 17.5704C117.1 17.6586 117.138 17.8073 117.138 18.0167C117.138 19.0966 116.844 20.0856 116.257 20.9836C115.67 21.8817 114.849 22.6007 113.794 23.1406ZM108.011 15.0716C107.995 14.818 107.987 14.5545 107.987 14.2809C107.987 13.2451 108.063 12.4296 108.216 11.8346C108.368 11.2396 108.564 10.8181 108.803 10.5701C109.042 10.3222 109.309 10.1982 109.602 10.1982C109.983 10.1982 110.339 10.5233 110.671 11.1734C111.002 11.8236 111.168 12.9035 111.168 14.4131C111.168 14.8759 110.961 15.1073 110.548 15.1073H108.013L108.011 15.0716ZM127.7 23.4134C127.564 23.5511 127.365 23.62 127.104 23.62H118.949C118.709 23.62 118.522 23.5539 118.386 23.4216C118.25 23.2894 118.182 23.1076 118.182 22.8762C118.182 22.6999 118.223 22.5539 118.304 22.4382C118.386 22.3225 118.497 22.215 118.639 22.1159L119.014 21.9671C119.155 21.901 119.253 21.7963 119.307 21.653C119.362 21.5098 119.389 21.2729 119.389 20.9423V12.5456C119.389 12.2811 119.359 12.0911 119.299 11.9754C119.239 11.8597 119.139 11.7687 118.998 11.7026L118.573 11.653C118.421 11.5649 118.31 11.4712 118.239 11.3721C118.168 11.2729 118.133 11.1462 118.133 10.9919C118.133 10.8156 118.187 10.6586 118.296 10.5208C118.405 10.3831 118.59 10.2646 118.851 10.1654L123.483 8.8266C123.755 8.71641 123.983 8.63927 124.168 8.59519C124.353 8.55112 124.511 8.52908 124.641 8.52908C124.826 8.52908 124.965 8.59519 125.057 8.72743L125.087 8.77538C125.163 8.9136 125.216 9.13453 125.245 9.43817L125.369 12.0066L125.397 11.9118C125.452 11.7329 125.513 11.5612 125.579 11.3968C125.976 10.4106 126.501 9.67784 127.153 9.1985C127.806 8.71916 128.518 8.47949 129.29 8.47949C130.225 8.47949 130.943 8.79354 131.443 9.42164C131.943 10.0497 132.193 11.0029 132.193 12.2811C132.193 13.5484 131.932 14.4795 131.411 15.0745C130.889 15.6696 130.214 15.9671 129.388 15.9671C128.583 15.9671 127.988 15.7632 127.602 15.3555C127.216 14.9478 127.012 14.3693 126.99 13.62L126.974 12.9588C126.963 12.7054 126.914 12.507 126.827 12.3638C126.74 12.2205 126.599 12.1489 126.403 12.1489C126.207 12.1489 126.036 12.2508 125.889 12.4547C125.742 12.6586 125.631 12.9699 125.555 13.3886C125.479 13.8073 125.441 14.3418 125.441 14.9919V20.8101C125.441 21.1186 125.489 21.3638 125.587 21.5456C125.685 21.7274 125.837 21.8404 126.044 21.8845L127.267 22.1324C127.496 22.1654 127.659 22.2508 127.757 22.3886C127.855 22.5263 127.904 22.6889 127.904 22.8762C127.904 23.0966 127.836 23.2756 127.7 23.4134ZM140.741 23.9175C142.361 23.9175 143.783 23.5814 145.006 22.9092C146.229 22.2371 147.186 21.3252 147.877 20.1737C148.567 19.0222 148.913 17.7192 148.913 16.2646C148.913 14.7329 148.581 13.3831 147.918 12.215C147.254 11.047 146.33 10.1324 145.145 9.47123C143.959 8.81007 142.573 8.47949 140.985 8.47949C139.387 8.47949 137.973 8.82109 136.744 9.50429C135.516 10.1875 134.553 11.1103 133.857 12.2729C133.161 13.4354 132.813 14.744 132.813 16.1985C132.813 17.7192 133.145 19.058 133.808 20.215C134.472 21.3721 135.399 22.2784 136.589 22.934C137.78 23.5897 139.164 23.9175 140.741 23.9175ZM140.993 21.7522C141.314 22.1158 141.643 22.2646 141.98 22.1984C142.317 22.1323 142.57 21.8679 142.739 21.405C142.907 20.9422 142.978 20.2563 142.951 19.3472C142.924 18.4381 142.78 17.2838 142.519 15.8844C142.258 14.4849 141.98 13.3555 141.687 12.496C141.393 11.6365 141.086 11.0249 140.765 10.6612C140.444 10.2976 140.115 10.1488 139.778 10.215C139.441 10.2921 139.191 10.5621 139.028 11.0249C138.865 11.4877 138.8 12.1709 138.832 13.0745C138.865 13.9781 139.006 15.1296 139.256 16.529C139.517 17.9285 139.792 19.0579 140.08 19.9174C140.368 20.7769 140.673 21.3885 140.993 21.7522ZM161.848 23.9506C162.761 23.9506 163.511 23.7825 164.099 23.4464C164.686 23.1103 165.123 22.7109 165.412 22.2481C165.7 21.7853 165.844 21.361 165.844 20.9754C165.844 20.8101 165.809 20.6723 165.738 20.5621C165.667 20.4519 165.572 20.3968 165.452 20.3968C165.398 20.3968 165.349 20.4079 165.306 20.4299C165.262 20.4519 165.224 20.485 165.191 20.5291C165.137 20.7274 165.053 20.8652 164.939 20.9423C164.824 21.0194 164.702 21.058 164.572 21.058C164.387 21.058 164.248 20.9946 164.156 20.8679C164.063 20.7412 164.017 20.5732 164.017 20.3638V13.058C164.017 11.6035 163.525 10.4767 162.541 9.67784C161.557 8.87894 160.015 8.47949 157.917 8.47949C156.285 8.47949 154.923 8.68335 153.831 9.09106C152.738 9.49878 151.917 10.0194 151.368 10.653C150.818 11.2867 150.544 11.934 150.544 12.5952C150.544 13.3004 150.748 13.8376 151.155 14.2068C151.563 14.5759 152.153 14.7605 152.925 14.7605C153.871 14.7605 154.616 14.5043 155.16 13.9919C155.704 13.4795 155.976 12.8156 155.976 12.0002V10.744C155.976 10.4354 156.071 10.1957 156.261 10.0249C156.451 9.85415 156.688 9.76875 156.971 9.76875C157.275 9.76875 157.517 9.8817 157.696 10.1076C157.876 10.3335 157.965 10.6393 157.965 11.0249L157.965 15.8431L157.878 15.8243C157.616 15.7737 157.312 15.7447 156.967 15.7375L156.791 15.7357C154.453 15.7357 152.711 16.1324 151.563 16.9258C150.416 17.7192 149.842 18.8266 149.842 20.2481C149.842 21.328 150.237 22.215 151.025 22.9092C151.813 23.6035 152.86 23.9506 154.165 23.9506C155.144 23.9506 156.057 23.7495 156.905 23.3473C157.541 23.0456 158.058 22.6494 158.456 22.1587L158.478 22.1301L158.502 22.204C158.628 22.5613 158.857 22.8814 159.192 23.1643L159.295 23.2481C159.898 23.7164 160.749 23.9506 161.848 23.9506ZM156.228 20.8345C156.495 21.1926 156.845 21.3717 157.28 21.3717L157.374 21.3685C157.559 21.3556 157.739 21.3039 157.912 21.2135L157.965 21.1835V16.9419L157.884 16.9172C157.699 16.8676 157.482 16.8428 157.231 16.8428C156.807 16.8428 156.468 17.0411 156.212 17.4378C155.956 17.8345 155.829 18.4185 155.829 19.1899C155.829 19.9282 155.962 20.4764 156.228 20.8345ZM173.347 24.0002C175.283 24.0002 176.767 23.5539 177.8 22.6613C178.833 21.7687 179.35 20.5511 179.35 19.0084C179.35 18.0718 179.176 17.2508 178.828 16.5456C178.48 15.8404 177.871 15.215 177.001 14.6696C176.131 14.1241 174.908 13.609 173.331 13.1241C172.744 12.9368 172.29 12.7467 171.969 12.5539C171.648 12.361 171.428 12.1544 171.308 11.934C171.189 11.7137 171.129 11.4767 171.129 11.2233C171.129 10.8486 171.265 10.5456 171.537 10.3142C171.808 10.0828 172.211 9.9671 172.744 9.9671C173.483 9.9671 174.182 10.215 174.84 10.7109C175.498 11.2068 176.223 12.0552 177.017 13.2564C177.224 13.5098 177.43 13.6944 177.637 13.8101C177.844 13.9258 178.039 13.9616 178.224 13.9175C178.453 13.8514 178.594 13.6999 178.648 13.463C178.703 13.226 178.692 12.8872 178.616 12.4464L178.192 9.40511C178.148 9.08555 178.067 8.85966 177.947 8.72743C177.827 8.59519 177.67 8.52908 177.474 8.52908C177.3 8.52908 177.082 8.58969 176.822 8.7109C176.561 8.83211 176.302 8.95608 176.047 9.0828C175.791 9.20952 175.598 9.27288 175.468 9.27288C175.348 9.27288 175.171 9.20677 174.938 9.07453C174.704 8.9423 174.375 8.81007 173.951 8.67784C173.527 8.54561 172.977 8.47949 172.303 8.47949C171.183 8.47949 170.175 8.68335 169.277 9.09106C168.38 9.49878 167.674 10.08 167.157 10.8349C166.64 11.5897 166.382 12.4905 166.382 13.5373C166.382 14.463 166.575 15.2729 166.961 15.9671C167.347 16.6613 167.937 17.2564 168.731 17.7522C169.525 18.2481 170.525 18.6503 171.732 18.9588C172.515 19.1682 173.116 19.3803 173.535 19.5952C173.953 19.8101 174.242 20.0442 174.399 20.2977C174.557 20.5511 174.636 20.8321 174.636 21.1406C174.636 21.5484 174.5 21.8845 174.228 22.1489C173.956 22.4134 173.543 22.5456 172.988 22.5456C172.466 22.5456 171.969 22.4327 171.496 22.2068C171.023 21.9809 170.536 21.5924 170.036 21.0415C169.536 20.4905 168.976 19.7357 168.356 18.777C168.171 18.5236 167.962 18.3473 167.728 18.2481C167.494 18.1489 167.258 18.1544 167.018 18.2646C166.79 18.3528 166.643 18.5401 166.578 18.8266C166.513 19.1131 166.529 19.4657 166.627 19.8845L167.133 23.1737C167.209 23.5043 167.317 23.7247 167.459 23.8349C167.6 23.9451 167.752 24.0002 167.915 24.0002C168.1 24.0002 168.326 23.9395 168.592 23.8183L169.392 23.4547C169.658 23.3335 169.873 23.2729 170.036 23.2729C170.199 23.2729 170.414 23.3335 170.68 23.4547C170.947 23.5759 171.295 23.6971 171.724 23.8183C172.154 23.9395 172.695 24.0002 173.347 24.0002ZM188.81 23.3802C188.093 23.7603 187.244 23.9504 186.266 23.9504C184.613 23.9504 183.371 23.5482 182.539 22.7438C181.707 21.9394 181.291 20.6722 181.291 18.9422V11.4711C181.291 11.2397 181.269 11.0634 181.226 10.9422C181.182 10.821 181.073 10.7218 180.899 10.6446L180.133 10.3967C179.948 10.3086 179.828 10.2011 179.774 10.0744C179.719 9.94767 179.692 9.79065 179.692 9.60332C179.692 9.37192 179.774 9.18183 179.937 9.03307C180.1 8.88431 180.301 8.80993 180.54 8.80993H181.34C181.438 8.80993 181.541 8.77137 181.65 8.69423C181.758 8.6171 181.905 8.46283 182.09 8.23142L185.108 5.7025C185.325 5.43803 185.543 5.23693 185.76 5.09919C185.978 4.96145 186.195 4.89258 186.413 4.89258C186.663 4.89258 186.858 4.96971 187 5.12398L187.044 5.17867C187.156 5.33321 187.212 5.55741 187.212 5.85126L187.211 8.80993H190.621C190.86 8.80993 191.045 8.86228 191.176 8.96696C191.306 9.07164 191.371 9.23418 191.371 9.45456C191.371 9.7631 191.235 10.0276 190.963 10.2479L190.903 10.2935C190.629 10.4835 190.214 10.5785 189.659 10.5785H187.211L187.212 18.1157C187.212 18.9422 187.35 19.5537 187.628 19.9504C187.905 20.3471 188.31 20.5455 188.843 20.5455C189.071 20.5455 189.283 20.4959 189.479 20.3967C189.675 20.2975 189.852 20.1681 190.009 20.0083C190.167 19.8485 190.316 19.6694 190.458 19.4711C190.599 19.2727 190.735 19.0744 190.866 18.876C190.974 18.832 191.07 18.8513 191.151 18.9339C191.233 19.0165 191.268 19.1846 191.257 19.438C191.181 20.3306 190.934 21.1157 190.515 21.7934C190.096 22.4711 189.528 23 188.81 23.3802ZM199.494 23.9506C200.875 23.9506 202.093 23.6806 203.148 23.1406C204.203 22.6007 205.024 21.8817 205.611 20.9836C206.198 20.0856 206.492 19.0966 206.492 18.0167C206.492 17.8073 206.454 17.6586 206.378 17.5704C206.302 17.4822 206.209 17.4382 206.1 17.4382C206.024 17.4382 205.935 17.463 205.831 17.5126C205.728 17.5621 205.611 17.6586 205.481 17.8018C205.252 18.507 204.804 19.058 204.135 19.4547C203.466 19.8514 202.697 20.0497 201.827 20.0497C200.468 20.0497 199.38 19.5842 198.565 18.653C198.087 18.1072 197.749 17.3806 197.551 16.4731L197.535 16.3968H204.991C205.463 16.3968 205.833 16.2724 206.101 16.0236L206.166 15.9588C206.438 15.6668 206.574 15.2674 206.574 14.7605C206.574 13.5924 206.299 12.5318 205.75 11.5787C205.201 10.6255 204.415 9.87068 203.393 9.3142C202.371 8.75773 201.153 8.47949 199.739 8.47949C198.075 8.47949 196.651 8.81007 195.465 9.47123C194.28 10.1324 193.375 11.0553 192.75 12.2398C192.124 13.4244 191.812 14.8046 191.812 16.3803C191.812 17.8789 192.135 19.1985 192.782 20.339C193.429 21.4795 194.329 22.3665 195.482 23.0002C196.634 23.6338 197.972 23.9506 199.494 23.9506ZM197.341 14.2809C197.341 14.5545 197.349 14.818 197.365 15.0716L197.367 15.1073H199.902C200.315 15.1073 200.522 14.8759 200.522 14.4131C200.522 12.9035 200.356 11.8236 200.024 11.1734C199.693 10.5233 199.337 10.1982 198.956 10.1982C198.662 10.1982 198.396 10.3222 198.157 10.5701C197.918 10.8181 197.722 11.2396 197.57 11.8346C197.417 12.4296 197.341 13.2451 197.341 14.2809ZM216.458 23.62C216.719 23.62 216.918 23.5511 217.054 23.4134C217.189 23.2756 217.257 23.0966 217.257 22.8762C217.257 22.6889 217.209 22.5263 217.111 22.3886C217.013 22.2508 216.85 22.1654 216.621 22.1324L215.398 21.8845C215.191 21.8404 215.039 21.7274 214.941 21.5456C214.843 21.3638 214.794 21.1186 214.794 20.8101V14.9919C214.794 14.3418 214.833 13.8073 214.909 13.3886C214.985 12.9699 215.096 12.6586 215.243 12.4547C215.39 12.2508 215.561 12.1489 215.757 12.1489C215.953 12.1489 216.094 12.2205 216.181 12.3638C216.268 12.507 216.317 12.7054 216.328 12.9588L216.344 13.62C216.366 14.3693 216.57 14.9478 216.956 15.3555C217.342 15.7632 217.937 15.9671 218.742 15.9671C219.568 15.9671 220.242 15.6696 220.764 15.0745C221.286 14.4795 221.547 13.5484 221.547 12.2811C221.547 11.0029 221.297 10.0497 220.797 9.42164C220.297 8.79354 219.579 8.47949 218.644 8.47949C217.872 8.47949 217.16 8.71916 216.507 9.1985C215.855 9.67784 215.33 10.4106 214.933 11.3968C214.867 11.5612 214.806 11.7329 214.751 11.9118L214.723 12.007L214.599 9.43817C214.57 9.13453 214.517 8.9136 214.441 8.77538L214.411 8.72743C214.319 8.59519 214.18 8.52908 213.995 8.52908C213.865 8.52908 213.707 8.55112 213.522 8.59519C213.337 8.63927 213.109 8.71641 212.837 8.8266L208.205 10.1654C207.944 10.2646 207.759 10.3831 207.65 10.5208C207.541 10.6586 207.487 10.8156 207.487 10.9919C207.487 11.1462 207.522 11.2729 207.593 11.3721C207.664 11.4712 207.775 11.5649 207.927 11.653L208.351 11.7026C208.493 11.7687 208.593 11.8597 208.653 11.9754C208.713 12.0911 208.743 12.2811 208.743 12.5456V20.9423C208.743 21.2729 208.716 21.5098 208.661 21.653C208.607 21.7963 208.509 21.901 208.368 21.9671L207.993 22.1159C207.851 22.215 207.74 22.3225 207.658 22.4382C207.577 22.5539 207.536 22.6999 207.536 22.8762C207.536 23.1076 207.604 23.2894 207.74 23.4216C207.876 23.5539 208.063 23.62 208.302 23.62H216.458ZM233.634 22.6613C232.601 23.5539 231.117 24.0002 229.181 24.0002C228.529 24.0002 227.988 23.9395 227.558 23.8183C227.129 23.6971 226.781 23.5759 226.514 23.4547C226.248 23.3335 226.033 23.2729 225.87 23.2729C225.707 23.2729 225.492 23.3335 225.226 23.4547L224.426 23.8183C224.16 23.9395 223.934 24.0002 223.749 24.0002C223.586 24.0002 223.434 23.9451 223.293 23.8349C223.151 23.7247 223.043 23.5043 222.966 23.1737L222.461 19.8845C222.363 19.4657 222.347 19.1131 222.412 18.8266C222.477 18.5401 222.624 18.3528 222.852 18.2646C223.092 18.1544 223.328 18.1489 223.562 18.2481C223.796 18.3473 224.005 18.5236 224.19 18.777C224.81 19.7357 225.37 20.4905 225.87 21.0415C226.37 21.5924 226.857 21.9809 227.33 22.2068C227.803 22.4327 228.3 22.5456 228.822 22.5456C229.377 22.5456 229.79 22.4134 230.062 22.1489C230.334 21.8845 230.47 21.5484 230.47 21.1406C230.47 20.8321 230.391 20.5511 230.233 20.2977C230.076 20.0442 229.787 19.8101 229.369 19.5952C228.95 19.3803 228.349 19.1682 227.566 18.9588C226.359 18.6503 225.359 18.2481 224.565 17.7522C223.771 17.2564 223.181 16.6613 222.795 15.9671C222.409 15.2729 222.216 14.463 222.216 13.5373C222.216 12.4905 222.474 11.5897 222.991 10.8349C223.507 10.08 224.214 9.49878 225.111 9.09106C226.009 8.68335 227.017 8.47949 228.137 8.47949C228.811 8.47949 229.361 8.54561 229.785 8.67784C230.209 8.81007 230.538 8.9423 230.771 9.07453C231.005 9.20677 231.182 9.27288 231.302 9.27288C231.432 9.27288 231.625 9.20952 231.881 9.0828C232.136 8.95608 232.394 8.83211 232.655 8.7109C232.916 8.58969 233.134 8.52908 233.308 8.52908C233.504 8.52908 233.661 8.59519 233.781 8.72743C233.901 8.85966 233.982 9.08555 234.026 9.40511L234.45 12.4464C234.526 12.8872 234.537 13.226 234.482 13.463C234.428 13.6999 234.287 13.8514 234.058 13.9175C233.873 13.9616 233.678 13.9258 233.471 13.8101C233.264 13.6944 233.058 13.5098 232.851 13.2564C232.057 12.0552 231.332 11.2068 230.674 10.7109C230.016 10.215 229.317 9.9671 228.578 9.9671C228.045 9.9671 227.642 10.0828 227.371 10.3142C227.099 10.5456 226.963 10.8486 226.963 11.2233C226.963 11.4767 227.023 11.7137 227.142 11.934C227.262 12.1544 227.482 12.361 227.803 12.5539C228.124 12.7467 228.578 12.9368 229.165 13.1241C230.742 13.609 231.965 14.1241 232.835 14.6696C233.705 15.215 234.314 15.8404 234.662 16.5456C235.01 17.2508 235.184 18.0718 235.184 19.0084C235.184 20.5511 234.667 21.7687 233.634 22.6613Z" fill="#333D4B"/>
<path fill-rule="evenodd" clip-rule="evenodd" d="M13.4999 4.00268C9.98273 0.491126 4.76927 -0.0143813 1.87808 2.87766C-1.01462 5.76821 -0.508734 10.9778 3.00243 14.4908C3.93914 15.4269 5.01846 16.1424 6.15783 16.6554C6.53161 14.4848 7.60342 12.3983 9.23066 10.6853C8.69175 10.4933 8.13933 10.3313 7.56289 10.1738C4.1493 9.23776 2.45301 6.39222 2.05671 3.05617C2.38449 3.45002 2.68292 3.86313 2.98047 4.27503C3.55778 5.0742 4.13178 5.86879 4.91038 6.50922C6.12157 7.50576 7.45104 7.89045 8.90551 8.3113C8.96166 8.32755 9.01801 8.34385 9.07454 8.36025C9.76356 8.55975 10.3625 8.85525 10.9119 9.20026C12.356 8.14574 13.9848 7.44373 15.666 7.15423C15.1542 6.01571 14.4366 4.93869 13.4999 4.00268ZM7.55238 17.4894C7.77605 15.3159 8.82985 13.1903 10.5186 11.5028C14.0358 7.99126 19.2493 7.48425 22.1404 10.3778C25.0331 13.2683 24.5288 18.4779 21.0131 21.991C19.3243 23.6785 17.1972 24.7315 15.022 24.9565C14.7323 24.985 14.4456 25 14.1649 25C12.2945 25 10.6237 24.3445 9.39277 23.1145C7.9757 21.7 7.3212 19.7019 7.55238 17.4894ZM12.6968 19.2728C13.8497 18.3937 15.0971 18.0457 16.4542 17.6752C19.8678 16.7392 21.5625 13.8937 21.9604 10.5576C21.6353 10.9493 21.3391 11.3596 21.0437 11.7687L21.0437 11.7687C20.4647 12.5707 19.889 13.368 19.1067 14.0107C17.8918 15.0088 16.5592 15.3942 15.0983 15.8166L14.9425 15.8617C11.6025 16.8307 9.95124 19.6523 9.56995 22.9358C9.89896 22.5408 10.2004 22.1307 10.5002 21.7228L10.5002 21.7228C11.1511 20.8372 11.7945 19.9618 12.6968 19.2728Z" fill="#0E8784"/>
</svg>
